<svg width="300" height="63" viewBox="0 0 300 63" fill="none" xmlns="http://www.w3.org/2000/svg">
<rect width="300" height="62.7022" rx="4" fill="#5C16C5"/>
<path d="M197.594 46.5293H252.748C254.751 46.5293 256.734 46.1348 258.585 45.3683C260.435 44.6019 262.117 43.4784 263.533 42.0622C264.949 40.6459 266.073 38.9646 266.839 37.1142C267.605 35.2637 268 33.2805 268 31.2776V31.2776C268.003 29.2725 267.611 27.2865 266.846 25.4331C266.081 23.5797 264.959 21.8953 263.542 20.4763C262.125 19.0573 260.443 17.9315 258.591 17.1634C256.739 16.3954 254.753 16 252.748 16H197.594C195.589 16 193.603 16.3954 191.751 17.1634C189.899 17.9315 188.216 19.0573 186.8 20.4763C185.383 21.8953 184.26 23.5797 183.495 25.4331C182.73 27.2865 182.338 29.2725 182.342 31.2776V31.2776C182.342 35.3226 183.949 39.2019 186.809 42.0622C189.669 44.9224 193.549 46.5293 197.594 46.5293ZM40.7177 46.5724H47.4502V21.9729H56.1679V16H32V21.9557H40.7177V46.5724ZM64.972 46.5724H71.7045V23.1209H71.7908L79.5159 46.5552H84.6947L92.6788 23.1209H92.7651V46.5552H99.4976V16H89.3557L82.278 35.9386H82.1916L75.157 16H64.972V46.5724ZM108.94 16.1036H119.039C121.39 16.1072 123.732 16.397 126.013 16.9667C128.091 17.4595 130.048 18.3635 131.77 19.6252C133.436 20.8777 134.777 22.5116 135.68 24.3897C136.702 26.6211 137.195 29.0578 137.122 31.5106C137.169 33.7704 136.69 36.0101 135.724 38.0532C134.824 39.8919 133.534 41.512 131.943 42.8005C130.315 44.1059 128.456 45.0927 126.462 45.7093C124.355 46.3784 122.156 46.7133 119.945 46.7019H108.94V16.1036ZM115.673 40.4441H119.125C120.578 40.4541 122.026 40.2947 123.441 39.9694C124.704 39.7131 125.898 39.1925 126.945 38.4417C127.945 37.6852 128.74 36.6914 129.259 35.5501C129.865 34.1696 130.159 32.6726 130.122 31.1654C130.147 29.8149 129.852 28.4776 129.259 27.264C128.72 26.1885 127.944 25.2498 126.989 24.5192C125.996 23.7818 124.875 23.2345 123.683 22.9051C122.368 22.5375 121.009 22.3545 119.643 22.3613H115.673V40.4441ZM146.875 16.1036H158.269C159.606 16.1042 160.941 16.1994 162.265 16.3884C163.521 16.5511 164.739 16.9308 165.865 17.5105C166.916 18.0561 167.808 18.865 168.454 19.8582C169.17 21.0703 169.515 22.4657 169.447 23.8718C169.506 25.4377 168.993 26.9716 168.005 28.1875C166.996 29.3559 165.667 30.2022 164.181 30.6216V30.6734C165.137 30.8099 166.064 31.1014 166.926 31.5365C167.722 31.9362 168.439 32.4773 169.041 33.1333C169.637 33.7903 170.098 34.5589 170.396 35.3948C170.717 36.2798 170.878 37.2152 170.871 38.1568C170.922 39.5751 170.563 40.978 169.835 42.1963C169.158 43.2568 168.241 44.1437 167.159 44.7857C166.022 45.4687 164.775 45.9504 163.474 46.2099C162.132 46.4976 160.763 46.6423 159.391 46.6415H146.875V16.1036ZM153.608 28.317H158.485C159.002 28.3198 159.517 28.2619 160.021 28.1444C160.503 28.0398 160.962 27.8498 161.376 27.5834C161.781 27.3225 162.115 26.967 162.352 26.5476C162.604 26.0697 162.729 25.5344 162.714 24.9939C162.742 24.4446 162.61 23.899 162.334 23.423C162.066 23.0151 161.702 22.68 161.273 22.4477C160.792 22.2062 160.276 22.0402 159.745 21.9557C159.219 21.8539 158.684 21.8019 158.148 21.8003H153.573L153.608 28.317ZM153.608 40.962H159.65C160.181 40.9635 160.711 40.9056 161.229 40.7894C161.745 40.684 162.234 40.4787 162.671 40.1852C163.106 39.8978 163.47 39.5138 163.733 39.0631C164.016 38.5485 164.156 37.9672 164.138 37.38C164.161 36.7605 163.972 36.1516 163.603 35.6537C163.241 35.2057 162.772 34.8556 162.239 34.6352C161.686 34.4048 161.106 34.2453 160.513 34.1605C159.927 34.0772 159.336 34.034 158.744 34.031H153.651L153.608 40.962Z" fill="white"/>
</svg>
